<?xml version="1.0" encoding="UTF-8"?>
<svg version="1.1" xmlns="http://www.w3.org/2000/svg" width="147" height="139">
<path d="M0 0 C-2 6 -2 6 -4 12 C-5.03898437 12.02578125 -6.07796875 12.0515625 -7.1484375 12.078125 C-20.05187241 12.54139674 -30.55062546 14.99881993 -39.6875 24.8125 C-46.93836803 33.80357636 -49.72896918 43.99083601 -48.68359375 55.38671875 C-46.7731251 65.48491016 -41.5169199 73.75422576 -33.625 80.2265625 C-24.25771813 86.55505352 -13.53020192 88.3565584 -2.5 86.3125 C6.94597931 83.97161158 15.12759835 78.30771519 20.25 70.0625 C24.10754083 63.51919821 25.38841957 57.80377835 25.375 50.3125 C25.37556396 49.51956543 25.37612793 48.72663086 25.37670898 47.90966797 C25.25356463 41.30024787 23.70542951 36.01930903 21 30 C20.2265625 27.87109375 20.2265625 27.87109375 20 26 C22.3125 23.4375 22.3125 23.4375 25 21 C25.99 19.515 25.99 19.515 27 18 C27.66 18 28.32 18 29 18 C38.15209831 30.63651164 40.48791712 43.76001752 39 59 C37.43442763 67.44701477 34.2760497 74.26574561 29 81 C28.54882812 81.61359375 28.09765625 82.2271875 27.6328125 82.859375 C19.36940058 93.41039813 7.15563625 98.89577385 -5.86328125 100.74609375 C-19.4443349 101.84543184 -33.1179655 98.42635415 -44 90 C-44 89.34 -44 88.68 -44 88 C-44.85078125 87.67322266 -44.85078125 87.67322266 -45.71875 87.33984375 C-54.62461993 82.10917014 -58.92744405 70.51025032 -61.52612305 61.09350586 C-64.536549 47.79396824 -61.60721634 33.61110573 -54.6875 22.125 C-47.00892811 10.92370063 -36.79871427 3.35354464 -23.625 -0.3515625 C-16.24146509 -1.67232413 -7.17476686 -2.39158895 0 0 Z " fill="#FF4444" transform="translate(97,22)"/>
<path d="M0 0 C0.66 0.33 1.32 0.66 2 1 C1.28890869 5.15242211 -0.63777039 6.37262913 -3.83984375 8.99609375 C-17.59395149 21.75532932 -26.10373143 40.19506882 -27.16015625 58.82421875 C-27.52146224 71.8469435 -24.44808152 83.24248021 -19 95 C-19.45375 93.783125 -19.9075 92.56625 -20.375 91.3125 C-26.42539599 72.81557511 -24.44542314 54.15278664 -16.1875 36.6875 C-13.32892458 31.29274488 -10.02405603 26.5829527 -6 22 C-5.41734375 21.32324219 -4.8346875 20.64648438 -4.234375 19.94921875 C2.83809716 12.29727933 12.24117435 6.58558517 22 3 C22.99 3.33 23.98 3.66 25 4 C24.09378906 4.49628906 23.18757813 4.99257812 22.25390625 5.50390625 C4.53172305 15.3292465 -9.19044942 27.02409094 -15.3203125 47.11328125 C-19.72024456 63.04673042 -20.07676898 80.62774659 -11.75 95.4375 C-11.1725 96.283125 -10.595 97.12875 -10 98 C-10.27714844 97.21496094 -10.55429687 96.42992188 -10.83984375 95.62109375 C-16.51946692 79.14816533 -16.48945634 64.05271186 -9.484375 48.0234375 C-1.55571438 31.87400771 10.14014326 19.76501752 27 13 C36.37532145 9.89442477 45.23877425 9.6354729 55 10 C55 10.33 55 10.66 55 11 C53.40285156 11.14695312 53.40285156 11.14695312 51.7734375 11.296875 C34.26851903 13.03925333 20.38740421 17.03753632 7 29 C-4.73239492 43.35243714 -11.78038503 61.24498512 -10 80 C-7.47504932 96.46111257 0.6268159 109.29240898 13.28515625 120.08203125 C27.04535264 129.80326352 42.33314963 134.41552 59.14355469 131.64697266 C66.92273756 130.04013089 74.52527695 127.66954395 82 125 C80.12221318 130.20607962 75.90598277 131.3652348 71.1796875 133.609375 C54.67520787 140.82755037 36.22136207 141.11484766 19 136 C17.83082031 135.6596875 16.66164062 135.319375 15.45703125 134.96875 C-4.06122006 128.66842024 -18.84323563 114.98554947 -28.25 97 C-36.39301382 80.08424595 -37.7721186 59.75708778 -32.328125 41.75390625 C-28.78838561 31.74893697 -23.86658499 23.1243258 -17 15 C-16.47921875 14.26007812 -15.9584375 13.52015625 -15.421875 12.7578125 C-14.95265625 12.17773438 -14.4834375 11.59765625 -14 11 C-13.34 11 -12.68 11 -12 11 C-12 10.34 -12 9.68 -12 9 C-10.42945794 7.58303493 -8.79253336 6.23893184 -7.125 4.9375 C-6.22007813 4.22464844 -5.31515625 3.51179687 -4.3828125 2.77734375 C-2 1 -2 1 0 0 Z M-8 102 C-7 104 -7 104 -7 104 Z " fill="#312D79" transform="translate(35,0)"/>
<path d="M0 0 C0 0.33 0 0.66 0 1 C-1.59714844 1.14695312 -1.59714844 1.14695312 -3.2265625 1.296875 C-20.73148097 3.03925333 -34.61259579 7.03753632 -48 19 C-59.69865976 33.31116834 -66.85958066 51.28344145 -65 70 C-64.19055441 74.39062909 -63.1556002 78.6889526 -62 83 C-61.66460388 84.33281594 -61.33031419 85.66591551 -61 87 C-61.99 86.67 -62.98 86.34 -64 86 C-64.495 86.99 -64.495 86.99 -65 88 C-71.13694168 70.6167559 -71.95041557 55.10749504 -64.484375 38.0234375 C-56.55571438 21.87400771 -44.85985674 9.76501752 -28 3 C-18.62467855 -0.10557523 -9.76122575 -0.3645271 0 0 Z " fill="#4D4A8B" transform="translate(90,10)"/>
<path d="M0 0 C8.45365434 1.76041392 14.31220424 5.6472205 21 11 C17.32656827 18.47878229 17.32656827 18.47878229 15 20 C10.5023508 19.5639622 7.09551444 17.60861913 3.1875 15.4375 C2.59001953 15.10814453 1.99253906 14.77878906 1.37695312 14.43945312 C-0.08533998 13.63226733 -1.5431399 12.81695083 -3 12 C-3.40178571 3.96428571 -3.40178571 3.96428571 0 0 Z " fill="#FF4D4D" transform="translate(99,23)"/>
<path d="M0 0 C0 0.33 0 0.66 0 1 C-1.59714844 1.14695312 -1.59714844 1.14695312 -3.2265625 1.296875 C-20.32840269 2.99913233 -35.23985152 6.68768773 -48 19 C-49.7761649 21.17747825 -51.33534096 23.46373443 -52.875 25.8125 C-53.2771875 26.40998047 -53.679375 27.00746094 -54.09375 27.62304688 C-55.07056653 29.07664291 -56.03646423 30.53756682 -57 32 C-57.66 30.68 -58.32 29.36 -59 28 C-48.28591802 13.92159276 -36.11419774 4.11888994 -18.46875 0.45703125 C-12.30778857 -0.35471705 -6.20365203 -0.23167165 0 0 Z " fill="#B5B4CF" transform="translate(90,10)"/>
<path d="M0 0 C-0.90621094 0.49628906 -1.81242187 0.99257812 -2.74609375 1.50390625 C-13.87000958 7.6717886 -22.78960882 14.1341076 -31 24 C-31.99 23.67 -32.98 23.34 -34 23 C-29.14110372 11.93666692 -16.78255456 5.07485009 -6.2890625 0.2109375 C-3 -1 -3 -1 0 0 Z " fill="#7A77A8" transform="translate(60,4)"/>
<path d="M0 0 C1 3 1 3 -0.36328125 6.109375 C-1.00324505 7.32810025 -1.65343324 8.54149848 -2.3125 9.75 C-4.84747638 14.4440244 -6.69036307 18.81463549 -8 24 C-8.66 23.01 -9.32 22.02 -10 21 C-10.66 21.33 -11.32 21.66 -12 22 C-9.39147248 13.46300084 -6.78780624 6.03360555 0 0 Z " fill="#63609A" transform="translate(27,26)"/>
<path d="M0 0 C0.66 0 1.32 0 2 0 C1.448018 5.10583347 -0.22783483 9.561116 -2.0625 14.31640625 C-2.95569481 16.87317639 -3.53741564 19.33532135 -4 22 C-4.66 20.68 -5.32 19.36 -6 18 C-6.66 19.98 -7.32 21.96 -8 24 C-9.97294241 19.02528018 -7.29346665 14.88051226 -5.4140625 10.21875 C-3.8319008 6.61736535 -2.08948818 3.3277034 0 0 Z " fill="#6B689F" transform="translate(30,40)"/>
<path d="M0 0 C0.33 0 0.66 0 1 0 C1 3.63 1 7.26 1 11 C0.34 11 -0.32 11 -1 11 C-1 15.29 -1 19.58 -1 24 C-1.99 23.34 -2.98 22.68 -4 22 C-5.40049282 14.02602284 -3.52524228 7.11343532 0 0 Z " fill="#3C3880" transform="translate(24,57)"/>
<path d="M0 0 C0 0.33 0 0.66 0 1 C-1.59714844 1.14695312 -1.59714844 1.14695312 -3.2265625 1.296875 C-12.91517115 2.26719415 -21.69464843 4.05945799 -31 7 C-32.33007056 7.34612311 -33.66203872 7.68575728 -35 8 C-31.7732607 4.11157492 -28.46970912 2.86968069 -23.6875 1.75 C-22.99269531 1.58016602 -22.29789063 1.41033203 -21.58203125 1.23535156 C-14.35911391 -0.38458974 -7.37100949 -0.38125911 0 0 Z " fill="#ABA9C8" transform="translate(90,10)"/>
<path d="M0 0 C-2.24923704 1.2930106 -4.49935185 2.58444977 -6.75 3.875 C-7.38421875 4.23980469 -8.0184375 4.60460937 -8.671875 4.98046875 C-11.74250368 6.7396831 -14.80851875 8.46873374 -18 10 C-18.66 9.34 -19.32 8.68 -20 8 C-4.64325843 -1.54775281 -4.64325843 -1.54775281 0 0 Z " fill="#9A98BD" transform="translate(60,4)"/>
<path d="M0 0 C0.66 0.33 1.32 0.66 2 1 C-2.95 5.95 -7.9 10.9 -13 16 C-13 11.08924079 -9.30469813 8.39044878 -6 5 C-4.05397986 3.23549584 -2.07285289 1.6178364 0 0 Z " fill="#FF7979" transform="translate(57,29)"/>
<path d="M0 0 C0 0.99 0 1.98 0 3 C-2.36103958 5.23519737 -4.98800316 6.79088299 -8 8 C-11.5 7.3125 -11.5 7.3125 -14 6 C-10.98029212 4.43370292 -7.91349586 3.12374836 -4.75 1.875 C-3.85796875 1.52179688 -2.9659375 1.16859375 -2.046875 0.8046875 C-1.37140625 0.53914063 -0.6959375 0.27359375 0 0 Z " fill="#8A88B3" transform="translate(116,125)"/>
<path d="M0 0 C-0.85714286 8.57142857 -0.85714286 8.57142857 -3 12 C-3.33 11.01 -3.66 10.02 -4 9 C-4.99 9.495 -4.99 9.495 -6 10 C-5.55090939 8.51800098 -5.09043436 7.03944764 -4.625 5.5625 C-4.36976562 4.73878906 -4.11453125 3.91507813 -3.8515625 3.06640625 C-2.98795614 0.97077431 -2.43893676 0 0 0 Z " fill="#585492" transform="translate(21,38)"/>
<path d="M0 0 C1.96301592 3.50538557 2.95902388 7.13351728 4 11 C3.01 10.67 2.02 10.34 1 10 C0.67 10.66 0.34 11.32 0 12 C-1.25664978 9.09399739 -2 7.20395416 -2 4 C-1.34 4 -0.68 4 0 4 C0 2.68 0 1.36 0 0 Z " fill="#6E6BA1" transform="translate(25,86)"/>
<path d="M0 0 C0.66 0 1.32 0 2 0 C1.125 5.75 1.125 5.75 0 8 C-0.99 8 -1.98 8 -3 8 C-2.45276317 4.62537285 -1.9451 2.91765 0 0 Z " fill="#565391" transform="translate(30,40)"/>
<path d="M0 0 C0.66 0 1.32 0 2 0 C1.42647107 3.87132028 -0.48704352 6.08172796 -3 9 C-3.75 7.3125 -3.75 7.3125 -4 5 C-2.1875 2.25 -2.1875 2.25 0 0 Z " fill="#8B89B4" transform="translate(35,33)"/>
<path d="M0 0 C0 4.38968456 -2.12805101 5.76905739 -5 9 C-5.66 8.34 -6.32 7.68 -7 7 C-4.78071806 4.09197539 -3.07030857 2.04687238 0 0 Z " fill="#A3A1C3" transform="translate(43,25)"/>
<path d="M0 0 C-4.95 2.475 -4.95 2.475 -10 5 C-10.66 4.34 -11.32 3.68 -12 3 C-10.5682384 2.30062798 -9.12932968 1.61587282 -7.6875 0.9375 C-6.48673828 0.36322266 -6.48673828 0.36322266 -5.26171875 -0.22265625 C-3 -1 -3 -1 0 0 Z " fill="#C6C5DA" transform="translate(60,4)"/>
<path d="M0 0 C0 0.66 0 1.32 0 2 C-2.5 3.625 -2.5 3.625 -5 5 C-5.66 4.34 -6.32 3.68 -7 3 C-3.375 0 -3.375 0 0 0 Z " fill="#8582AF" transform="translate(42,13)"/>
<path d="" fill="#F9F9FB" transform="translate(0,0)"/>
</svg>
